<?xml version="1.0" standalone="no"?>
<!DOCTYPE svg PUBLIC "-//W3C//DTD SVG 20010904//EN"
 "http://www.w3.org/TR/2001/REC-SVG-20010904/DTD/svg10.dtd">
<svg version="1.0" xmlns="http://www.w3.org/2000/svg"
 width="1200.000000pt" height="1238.000000pt" viewBox="0 0 1200.000000 1238.000000"
 preserveAspectRatio="xMidYMid meet">
<metadata>
Created by potrace 1.16, written by Peter Selinger 2001-2019
</metadata>
<g transform="translate(0.000000,1238.000000) scale(0.100000,-0.100000)"
fill="#000000" stroke="none">
<path d="M0 6190 l0 -6190 6000 0 6000 0 0 6190 0 6190 -6000 0 -6000 0 0
-6190z m9125 5835 c794 -92 1445 -395 1966 -915 178 -177 277 -294 338 -399
261 -447 210 -1419 -135 -2603 -251 -862 -637 -1759 -1096 -2548 -97 -166
-233 -388 -279 -457 -16 -23 -29 -46 -29 -52 0 -5 24 -21 53 -34 210 -100 606
-99 1132 3 135 27 178 31 275 28 100 -3 121 -7 165 -30 58 -30 85 -57 115
-116 34 -65 26 -166 -19 -256 -113 -222 -554 -531 -934 -655 -139 -45 -351
-91 -542 -117 -99 -14 -192 -18 -390 -18 -237 1 -270 3 -372 25 -62 14 -113
23 -113 22 0 -2 -16 -139 -35 -306 -77 -663 -178 -1422 -231 -1742 -115 -696
-341 -1052 -817 -1285 -358 -175 -835 -270 -1150 -231 -343 43 -625 210 -821
485 -98 138 -216 381 -256 530 -79 290 -125 919 -137 1879 -3 290 -8 527 -10
527 -2 0 -30 -22 -61 -48 -134 -111 -339 -222 -508 -275 -178 -56 -291 -72
-524 -72 -161 0 -243 5 -325 18 -316 52 -526 138 -658 270 -134 132 -133 319
1 438 96 84 226 135 512 198 318 71 456 122 542 199 40 36 258 300 258 313 0
3 -39 9 -87 13 -97 7 -288 47 -373 78 -30 11 -95 38 -144 61 l-88 41 -27 -31
c-14 -17 -110 -123 -212 -235 -225 -246 -379 -420 -586 -667 -86 -102 -191
-220 -233 -261 -322 -320 -689 -360 -1040 -112 -91 64 -250 228 -346 356 -407
544 -814 1565 -1159 2911 -163 633 -295 1280 -367 1800 -19 138 -22 205 -22
490 0 250 4 366 17 480 65 562 214 982 468 1325 74 100 226 260 324 340 341
279 801 446 1351 491 180 14 569 7 764 -15 446 -50 932 -159 1365 -306 l146
-50 118 70 c338 200 696 304 1139 332 299 19 660 -9 984 -78 l118 -25 111 35
c273 87 648 159 959 186 69 6 143 12 165 14 98 10 609 -4 740 -19z"/>
<path d="M8315 11689 c-117 -9 -430 -52 -515 -70 l-52 -11 139 -68 c587 -290
1108 -760 1508 -1360 235 -353 424 -744 505 -1046 18 -66 21 -105 21 -244 -2
-210 -12 -319 -63 -665 -41 -275 -42 -285 -42 -555 -1 -249 2 -300 31 -545 55
-455 64 -641 42 -861 -24 -247 -91 -485 -196 -693 l-63 -123 21 -30 c12 -16
26 -27 31 -26 6 2 55 78 111 168 670 1100 1194 2451 1381 3565 114 677 90
1217 -65 1442 -93 135 -313 361 -484 499 -390 312 -894 522 -1440 598 -252 36
-602 45 -870 25z"/>
<path d="M6030 11563 c-302 -28 -523 -81 -740 -177 -662 -291 -1127 -966
-1336 -1935 -38 -180 -79 -436 -90 -569 l-7 -84 109 55 c233 117 475 197 709
237 111 19 155 21 305 17 204 -6 282 -23 425 -92 208 -101 358 -282 438 -530
53 -163 122 -563 153 -885 22 -238 15 -657 -14 -845 -51 -324 -114 -525 -290
-920 -103 -233 -272 -692 -272 -741 0 -5 42 -9 92 -9 293 0 550 -214 634 -527
16 -57 17 -149 19 -963 2 -992 15 -1349 65 -1801 27 -238 52 -355 106 -481
141 -331 312 -510 564 -591 229 -74 539 -49 909 74 477 158 690 402 805 924
56 255 180 1177 296 2200 12 102 25 273 30 380 10 213 18 272 55 380 33 96 82
175 152 241 74 71 125 103 228 142 l82 32 -99 125 c-151 191 -232 318 -329
515 -48 99 -151 295 -229 435 -489 882 -713 1476 -737 1955 -27 541 234 893
747 1009 130 29 271 39 492 34 128 -3 218 -1 218 4 0 19 -93 237 -155 363
-283 578 -751 1126 -1250 1464 -486 329 -1019 514 -1624 561 -125 9 -379 11
-461 3z"/>
<path d="M2495 11529 c-650 -61 -1128 -314 -1419 -752 -268 -402 -391 -941
-373 -1637 8 -307 48 -590 162 -1150 340 -1674 846 -3107 1319 -3738 217 -288
422 -414 600 -367 133 35 228 114 439 364 187 221 520 600 679 772 75 81 139
152 142 158 5 7 -36 57 -103 127 -260 270 -427 617 -482 999 -20 135 -16 382
9 580 43 345 58 712 42 1050 -20 440 -23 647 -11 805 77 1037 379 1853 894
2422 53 59 75 90 66 93 -50 18 -310 92 -443 125 -281 71 -628 129 -900 150
-150 12 -491 11 -621 -1z"/>
<path d="M8995 8809 c-254 -32 -437 -134 -513 -285 -53 -104 -66 -172 -66
-334 1 -418 215 -993 692 -1851 131 -237 191 -351 252 -486 18 -40 36 -73 40
-73 14 0 78 186 104 300 57 257 56 483 -4 1007 -65 570 -63 693 19 1248 28
184 56 453 49 460 -2 2 -55 8 -118 14 -133 13 -354 12 -455 0z m163 -164 c56
-17 92 -53 92 -93 0 -66 -89 -175 -181 -223 -54 -27 -160 -37 -215 -19 -57 18
-129 66 -161 108 -34 45 -37 100 -8 132 79 88 328 138 473 95z"/>
<path d="M4715 8741 c-265 -47 -582 -175 -803 -324 l-74 -49 6 -41 c3 -23 11
-168 17 -322 17 -416 2 -808 -46 -1201 -9 -71 -16 -190 -16 -264 -1 -602 367
-1137 908 -1321 144 -49 359 -76 367 -46 65 227 188 563 287 784 168 375 230
570 276 863 25 162 25 643 0 850 -36 297 -101 638 -143 749 -67 178 -194 287
-380 326 -92 20 -275 18 -399 -4z m415 -182 c30 -6 88 -26 127 -45 119 -56
151 -129 96 -212 -63 -92 -167 -146 -283 -147 -52 0 -78 6 -130 31 -119 57
-221 189 -206 268 20 103 179 145 396 105z"/>
<path d="M9547 4750 c-49 -15 -106 -40 -127 -54 -72 -47 -111 -145 -125 -308
-9 -111 -3 -122 83 -148 246 -73 752 -44 1132 64 198 57 459 195 632 334 31
26 56 47 55 48 -1 1 -45 -6 -97 -16 -629 -122 -1129 -95 -1387 75 -29 19 -58
35 -65 35 -7 -1 -53 -14 -101 -30z"/>
<path d="M5490 4733 c-45 -17 -103 -70 -192 -178 -55 -66 -136 -163 -180 -216
-96 -116 -181 -183 -308 -243 -113 -53 -209 -82 -470 -142 -107 -24 -224 -54
-259 -65 l-64 -22 24 -18 c50 -38 193 -84 360 -115 116 -21 382 -29 494 -15
206 27 439 119 587 231 144 110 308 295 329 373 24 89 -17 224 -95 314 -53 61
-178 114 -226 96z"/>
</g>
</svg>
